<svg xmlns="http://www.w3.org/2000/svg" width="24.284" height="18.888" viewBox="0 0 24.284 18.888">
  <path id="Icon_awesome-book-open" data-name="Icon awesome-book-open" d="M22.86,2.252c-2.31.131-6.9.608-9.737,2.344a.648.648,0,0,0-.307.555V20.492a.667.667,0,0,0,.981.569c2.917-1.468,7.135-1.869,9.22-1.978a1.315,1.315,0,0,0,1.266-1.293V3.546A1.322,1.322,0,0,0,22.86,2.252ZM11.161,4.6C8.327,2.86,3.735,2.384,1.424,2.252A1.322,1.322,0,0,0,0,3.546V17.79a1.314,1.314,0,0,0,1.266,1.293c2.087.11,6.307.511,9.223,1.979a.665.665,0,0,0,.979-.567V5.143A.635.635,0,0,0,11.161,4.6Z" transform="translate(0 -2.25)" fill="#fff"/>
</svg>
