<svg xmlns="http://www.w3.org/2000/svg" width="29.087" height="18.51" viewBox="0 0 29.087 18.51">
  <path id="Icon_material-group" data-name="Icon material-group" d="M21.332,15.433a3.966,3.966,0,1,0-3.966-3.966A3.95,3.95,0,0,0,21.332,15.433Zm-10.577,0a3.966,3.966,0,1,0-3.966-3.966A3.95,3.95,0,0,0,10.755,15.433Zm0,2.644C7.674,18.077,1.5,19.624,1.5,22.7V26.01H20.01V22.7C20.01,19.624,13.835,18.077,10.755,18.077Zm10.577,0c-.383,0-.82.026-1.282.066a5.579,5.579,0,0,1,2.6,4.561V26.01h7.933V22.7C30.587,19.624,24.412,18.077,21.332,18.077Z" transform="translate(-1.5 -7.5)" fill="#fff"/>
</svg>
