<svg xmlns="http://www.w3.org/2000/svg" viewBox="0 0 189.28 194.61"><defs><style>.cls-1{fill:#234871;}</style></defs><g id="Calque_2" data-name="Calque 2"><g id="Calque_1-2" data-name="Calque 1"><path class="cls-1" d="M189.28,97.43C169.37,81.69,148.87,71.05,128,65.58l-9.47,15.47L117,83.55l-33.1,54.09a34.06,34.06,0,0,0,37.79-53c18.65,4.68,37.12,14.21,55.2,28.5Z"/><path class="cls-1" d="M111.72,75.87l7.52-12.28,32.52-53.15L134.7,0,97.21,61.27q-3.57-.08-7.15,0c-1,0-2,.08-2.93.14C57.29,63.2,28,75.29,0,97.44l12.41,15.68c18.05-14.27,36.53-23.81,55.2-28.49a33.88,33.88,0,0,0-7,20.18c0,.17,0,.35,0,.52a33.93,33.93,0,0,0,2.23,12.13L22,184.17l17.05,10.44,37.13-60.67,31.75-51.89Z"/></g></g></svg>