<svg xmlns="http://www.w3.org/2000/svg" viewBox="0 0 33.09 30.94"><defs><style>.cls-1{fill:#fff;}</style></defs><g id="Calque_2" data-name="Calque 2"><g id="Calque_1-2" data-name="Calque 1"><path class="cls-1" d="M33.09,7.8a20,20,0,0,1-3.91,10.68c-3.91,5.36-9.88,10.3-12.64,12.46C13.77,28.78,7.81,23.83,3.9,18.47A19.76,19.76,0,0,1,0,7.8,7.8,7.8,0,0,1,7.73,0h.09a7.66,7.66,0,0,1,3.77,1,8.05,8.05,0,0,1,2.79,2.62A2.59,2.59,0,0,0,18,4.36a2.64,2.64,0,0,0,.74-.75A8.17,8.17,0,0,1,21.5,1a7.66,7.66,0,0,1,3.77-1h.09A7.8,7.8,0,0,1,33.09,7.8Z"/></g></g></svg>