<svg xmlns="http://www.w3.org/2000/svg" viewBox="0 0 33.09 30.94"><defs><style>.cls-1{fill:#fff;}</style></defs><g id="Calque_2" data-name="Calque 2"><g id="Calque_1-2" data-name="Calque 1"><path class="cls-1" d="M25.35,2a5.81,5.81,0,0,1,5.74,5.74,17.91,17.91,0,0,1-3.53,9.56,64.47,64.47,0,0,1-11,11.08,65.33,65.33,0,0,1-11-11.11A17.74,17.74,0,0,1,2,7.74,5.82,5.82,0,0,1,7.73,2h.09a5.6,5.6,0,0,1,2.78.73,6.06,6.06,0,0,1,2.11,2,4.58,4.58,0,0,0,3.84,2.07A4.63,4.63,0,0,0,19.05,6l0,0h0a4.6,4.6,0,0,0,1.27-1.3,6.24,6.24,0,0,1,2.11-2A5.67,5.67,0,0,1,25.27,2h.08m0-2h-.09A7.66,7.66,0,0,0,21.5,1a8.17,8.17,0,0,0-2.8,2.62,2.54,2.54,0,0,1-2.15,1.17,2.58,2.58,0,0,1-2.17-1.17A8.05,8.05,0,0,0,11.59,1,7.66,7.66,0,0,0,7.82,0H7.73A7.8,7.8,0,0,0,0,7.8,19.76,19.76,0,0,0,3.9,18.47c3.91,5.36,9.87,10.31,12.64,12.47,2.76-2.16,8.73-7.1,12.64-12.46A20,20,0,0,0,33.09,7.8,7.8,7.8,0,0,0,25.36,0Z"/></g></g></svg>