<svg xmlns="http://www.w3.org/2000/svg" viewBox="0 0 226.09 97.16"><defs><style>.cls-1{fill:#293072;}</style></defs><g id="Calque_2" data-name="Calque 2"><g id="Calque_1-2" data-name="Calque 1"><path class="cls-1" d="M16.91,0H2.19A2.19,2.19,0,0,0,0,2.19V93.82A2.19,2.19,0,0,0,2.19,96h43a2.19,2.19,0,0,0,2.19-2.19V82a2.19,2.19,0,0,0-2.19-2.19H19.09V2.19A2.19,2.19,0,0,0,16.91,0Z"/><path class="cls-1" d="M73.71,69.09H98.48a2.19,2.19,0,0,0,2.19-2.19V55.81a2.19,2.19,0,0,0-2.19-2.19H73.71V15.85h30.08A2.19,2.19,0,0,0,106,13.66V2.19A2.19,2.19,0,0,0,103.79,0h-47a2.19,2.19,0,0,0-2.19,2.19V93.82A2.19,2.19,0,0,0,56.8,96h47.56a2.19,2.19,0,0,0,2.19-2.19V82.35a2.19,2.19,0,0,0-2.19-2.19H73.71Z"/><path class="cls-1" d="M132.53,0H117.81a2.19,2.19,0,0,0-2.19,2.19V93.82A2.19,2.19,0,0,0,117.81,96h43A2.19,2.19,0,0,0,163,93.82V82a2.19,2.19,0,0,0-2.19-2.19H134.72V2.19A2.19,2.19,0,0,0,132.53,0Z"/><path class="cls-1" d="M209.09,0a2.19,2.19,0,0,0-2.19,2.19v68a10.53,10.53,0,0,1-1.34,5.49,8.85,8.85,0,0,1-3.68,3.44,11.63,11.63,0,0,1-5.39,1.2,12.09,12.09,0,0,1-5.4-1.2,9.27,9.27,0,0,1-3.86-3.48,10.22,10.22,0,0,1-1.43-5.54V2.19A2.19,2.19,0,0,0,183.61,0H168.89a2.19,2.19,0,0,0-2.19,2.19V68.42a29.45,29.45,0,0,0,3.72,14.9,26.56,26.56,0,0,0,10.41,10.16,35.05,35.05,0,0,0,31.27,0,26.27,26.27,0,0,0,10.31-10.12,29.41,29.41,0,0,0,3.68-14.84V2.19A2.19,2.19,0,0,0,223.9,0Z"/></g></g></svg>