<svg xmlns="http://www.w3.org/2000/svg" viewBox="0 0 227.6 114.43"><defs><style>.cls-1{fill:#293072;}</style></defs><g id="Calque_2" data-name="Calque 2"><g id="Calque_1-2" data-name="Calque 1"><path class="cls-1" d="M17.76,0H3.05A2.19,2.19,0,0,0,.86,2.19V93.82A2.19,2.19,0,0,0,3.05,96H46a2.19,2.19,0,0,0,2.18-2.19V82A2.19,2.19,0,0,0,46,79.78H20V2.19A2.19,2.19,0,0,0,17.76,0Z"/><path class="cls-1" d="M74.57,69.09H99.34a2.19,2.19,0,0,0,2.19-2.19V55.81a2.19,2.19,0,0,0-2.19-2.19H74.57V15.85h30.08a2.19,2.19,0,0,0,2.19-2.19V2.19A2.19,2.19,0,0,0,104.65,0h-47a2.19,2.19,0,0,0-2.19,2.19V93.82A2.19,2.19,0,0,0,57.66,96h47.56a2.19,2.19,0,0,0,2.19-2.19V82.35a2.19,2.19,0,0,0-2.19-2.19H74.57Z"/><path class="cls-1" d="M133.38,0H118.67a2.19,2.19,0,0,0-2.19,2.19V93.82A2.19,2.19,0,0,0,118.67,96h43a2.19,2.19,0,0,0,2.19-2.19V82a2.19,2.19,0,0,0-2.19-2.19H135.57V2.19A2.19,2.19,0,0,0,133.38,0Z"/><path class="cls-1" d="M209.94,0a2.19,2.19,0,0,0-2.19,2.19v68a10.53,10.53,0,0,1-1.33,5.49,8.85,8.85,0,0,1-3.68,3.44,11.66,11.66,0,0,1-5.39,1.2,12.06,12.06,0,0,1-5.4-1.2,9.27,9.27,0,0,1-3.86-3.48,10.22,10.22,0,0,1-1.44-5.54V2.19A2.19,2.19,0,0,0,184.47,0H169.75a2.19,2.19,0,0,0-2.19,2.19V68.42a29.45,29.45,0,0,0,3.72,14.9,26.43,26.43,0,0,0,10.41,10.16,35.05,35.05,0,0,0,31.27,0,26.27,26.27,0,0,0,10.31-10.12A29.41,29.41,0,0,0,227,68.52V2.19A2.2,2.2,0,0,0,224.76,0Z"/><rect class="cls-1" y="104.26" width="227.6" height="10.17" rx="1.3"/></g></g></svg>